<mxfile host="Electron" modified="2025-04-07T14:29:42.933Z" agent="Mozilla/5.0 (Windows NT 10.0; Win64; x64) AppleWebKit/537.36 (KHTML, like Gecko) draw.io/22.0.3 Chrome/114.0.5735.289 Electron/25.8.4 Safari/537.36" etag="9n7CRCGK-R4-xrfFxB5d" version="22.0.3" type="device">
  <diagram name="Página-1" id="PV0C417ytZdiI2iAubdF">
    <mxGraphModel dx="4220" dy="2607" grid="1" gridSize="10" guides="1" tooltips="1" connect="1" arrows="1" fold="1" page="1" pageScale="1" pageWidth="827" pageHeight="1169" math="0" shadow="0">
      <root>
        <mxCell id="0" />
        <mxCell id="1" parent="0" />
        <mxCell id="tN9eeVgs6B-u2x_idrSd-1" value="&lt;font style=&quot;font-size: 24px;&quot;&gt;&lt;b&gt;RPG&lt;br&gt;Forgotten Sky&lt;/b&gt;&lt;/font&gt;" style="text;html=1;align=center;verticalAlign=middle;resizable=0;points=[];autosize=1;strokeColor=none;fillColor=none;" parent="1" vertex="1">
          <mxGeometry x="70" y="40" width="180" height="70" as="geometry" />
        </mxCell>
        <mxCell id="tN9eeVgs6B-u2x_idrSd-2" value="&lt;font style=&quot;font-size: 16px;&quot;&gt;&lt;b&gt;Jogador&lt;/b&gt;&lt;/font&gt;" style="rounded=0;whiteSpace=wrap;html=1;" parent="1" vertex="1">
          <mxGeometry x="354" y="190" width="120" height="60" as="geometry" />
        </mxCell>
        <mxCell id="tN9eeVgs6B-u2x_idrSd-3" value="&lt;span style=&quot;font-size: 16px;&quot;&gt;&lt;b&gt;NPCs&lt;/b&gt;&lt;/span&gt;" style="rounded=0;whiteSpace=wrap;html=1;" parent="1" vertex="1">
          <mxGeometry x="210" y="650" width="120" height="60" as="geometry" />
        </mxCell>
        <mxCell id="tN9eeVgs6B-u2x_idrSd-6" value="&lt;font style=&quot;font-size: 16px;&quot;&gt;Nome&lt;/font&gt;" style="ellipse;whiteSpace=wrap;html=1;" parent="1" vertex="1">
          <mxGeometry x="130" y="240" width="120" height="80" as="geometry" />
        </mxCell>
        <mxCell id="tN9eeVgs6B-u2x_idrSd-7" value="&lt;font style=&quot;font-size: 16px;&quot;&gt;Idade&lt;/font&gt;" style="ellipse;whiteSpace=wrap;html=1;" parent="1" vertex="1">
          <mxGeometry x="220" y="380" width="120" height="80" as="geometry" />
        </mxCell>
        <mxCell id="tN9eeVgs6B-u2x_idrSd-8" value="&lt;font style=&quot;font-size: 16px;&quot;&gt;Passado&lt;/font&gt;" style="ellipse;whiteSpace=wrap;html=1;" parent="1" vertex="1">
          <mxGeometry x="430" y="380" width="120" height="80" as="geometry" />
        </mxCell>
        <mxCell id="tN9eeVgs6B-u2x_idrSd-9" value="&lt;font style=&quot;font-size: 16px;&quot;&gt;Atributos&lt;/font&gt;" style="ellipse;whiteSpace=wrap;html=1;" parent="1" vertex="1">
          <mxGeometry x="40" y="390" width="120" height="80" as="geometry" />
        </mxCell>
        <mxCell id="tN9eeVgs6B-u2x_idrSd-10" value="&lt;font style=&quot;font-size: 16px;&quot;&gt;Força&lt;/font&gt;" style="ellipse;whiteSpace=wrap;html=1;" parent="1" vertex="1">
          <mxGeometry x="-200" y="190" width="120" height="80" as="geometry" />
        </mxCell>
        <mxCell id="tN9eeVgs6B-u2x_idrSd-11" value="&lt;font style=&quot;font-size: 16px;&quot;&gt;Destreza&lt;/font&gt;" style="ellipse;whiteSpace=wrap;html=1;" parent="1" vertex="1">
          <mxGeometry x="-200" y="390" width="120" height="80" as="geometry" />
        </mxCell>
        <mxCell id="tN9eeVgs6B-u2x_idrSd-12" value="&lt;font style=&quot;font-size: 16px;&quot;&gt;Intelecto&lt;/font&gt;" style="ellipse;whiteSpace=wrap;html=1;" parent="1" vertex="1">
          <mxGeometry x="-200" y="690" width="120" height="80" as="geometry" />
        </mxCell>
        <mxCell id="tN9eeVgs6B-u2x_idrSd-13" value="&lt;font style=&quot;font-size: 16px;&quot;&gt;Constituição&lt;/font&gt;" style="ellipse;whiteSpace=wrap;html=1;" parent="1" vertex="1">
          <mxGeometry x="-200" y="290" width="120" height="80" as="geometry" />
        </mxCell>
        <mxCell id="tN9eeVgs6B-u2x_idrSd-14" value="&lt;font style=&quot;font-size: 16px;&quot;&gt;Sabedoria&lt;/font&gt;" style="ellipse;whiteSpace=wrap;html=1;" parent="1" vertex="1">
          <mxGeometry x="-200" y="585" width="120" height="80" as="geometry" />
        </mxCell>
        <mxCell id="tN9eeVgs6B-u2x_idrSd-15" value="&lt;font style=&quot;font-size: 16px;&quot;&gt;Carisma&lt;/font&gt;" style="ellipse;whiteSpace=wrap;html=1;" parent="1" vertex="1">
          <mxGeometry x="-200" y="490" width="120" height="80" as="geometry" />
        </mxCell>
        <mxCell id="tN9eeVgs6B-u2x_idrSd-16" value="&lt;font style=&quot;font-size: 16px;&quot;&gt;Níveis&lt;/font&gt;" style="ellipse;whiteSpace=wrap;html=1;" parent="1" vertex="1">
          <mxGeometry x="-410" y="430" width="120" height="80" as="geometry" />
        </mxCell>
        <mxCell id="tN9eeVgs6B-u2x_idrSd-17" value="&lt;span style=&quot;font-size: 16px;&quot;&gt;Chance Acerto&lt;/span&gt;" style="ellipse;whiteSpace=wrap;html=1;dashed=1;dashPattern=8 8;" parent="1" vertex="1">
          <mxGeometry x="-580" y="430" width="120" height="80" as="geometry" />
        </mxCell>
        <mxCell id="tN9eeVgs6B-u2x_idrSd-18" value="&lt;font style=&quot;font-size: 16px;&quot;&gt;ID (PK)&lt;/font&gt;" style="ellipse;whiteSpace=wrap;html=1;" parent="1" vertex="1">
          <mxGeometry x="200" y="140" width="120" height="80" as="geometry" />
        </mxCell>
        <mxCell id="tN9eeVgs6B-u2x_idrSd-38" value="&lt;font style=&quot;font-size: 16px;&quot;&gt;Nome&lt;/font&gt;" style="ellipse;whiteSpace=wrap;html=1;" parent="1" vertex="1">
          <mxGeometry x="30" y="750" width="120" height="80" as="geometry" />
        </mxCell>
        <mxCell id="tN9eeVgs6B-u2x_idrSd-39" value="&lt;font style=&quot;font-size: 16px;&quot;&gt;Idade&lt;/font&gt;" style="ellipse;whiteSpace=wrap;html=1;" parent="1" vertex="1">
          <mxGeometry x="100" y="870" width="120" height="80" as="geometry" />
        </mxCell>
        <mxCell id="tN9eeVgs6B-u2x_idrSd-40" value="&lt;font style=&quot;font-size: 16px;&quot;&gt;Passado&lt;/font&gt;" style="ellipse;whiteSpace=wrap;html=1;" parent="1" vertex="1">
          <mxGeometry x="254" y="880" width="120" height="80" as="geometry" />
        </mxCell>
        <mxCell id="tN9eeVgs6B-u2x_idrSd-41" value="&lt;font style=&quot;font-size: 16px;&quot;&gt;Atributos&lt;/font&gt;" style="ellipse;whiteSpace=wrap;html=1;" parent="1" vertex="1">
          <mxGeometry x="374" y="810" width="120" height="80" as="geometry" />
        </mxCell>
        <mxCell id="tN9eeVgs6B-u2x_idrSd-42" value="&lt;font style=&quot;font-size: 16px;&quot;&gt;ID (PK)&lt;/font&gt;" style="ellipse;whiteSpace=wrap;html=1;" parent="1" vertex="1">
          <mxGeometry x="30" y="640" width="120" height="80" as="geometry" />
        </mxCell>
        <mxCell id="tN9eeVgs6B-u2x_idrSd-44" value="&lt;span style=&quot;font-size: 16px;&quot;&gt;Diálogos&lt;/span&gt;" style="ellipse;whiteSpace=wrap;html=1;" parent="1" vertex="1">
          <mxGeometry x="400" y="610" width="120" height="80" as="geometry" />
        </mxCell>
        <mxCell id="tN9eeVgs6B-u2x_idrSd-45" value="&lt;font style=&quot;font-size: 16px;&quot;&gt;Missões&lt;/font&gt;" style="ellipse;whiteSpace=wrap;html=1;" parent="1" vertex="1">
          <mxGeometry x="430" y="700" width="120" height="80" as="geometry" />
        </mxCell>
        <mxCell id="tN9eeVgs6B-u2x_idrSd-46" value="&lt;span style=&quot;font-size: 16px;&quot;&gt;Pontos de Experiência&lt;/span&gt;" style="ellipse;whiteSpace=wrap;html=1;dashed=1;dashPattern=8 8;" parent="1" vertex="1">
          <mxGeometry x="580" y="700" width="120" height="80" as="geometry" />
        </mxCell>
        <mxCell id="tN9eeVgs6B-u2x_idrSd-62" value="&lt;span style=&quot;font-size: 16px;&quot;&gt;&lt;b&gt;Adversários&lt;/b&gt;&lt;/span&gt;" style="rounded=0;whiteSpace=wrap;html=1;" parent="1" vertex="1">
          <mxGeometry x="901" y="410" width="120" height="60" as="geometry" />
        </mxCell>
        <mxCell id="tN9eeVgs6B-u2x_idrSd-63" value="&lt;font style=&quot;font-size: 16px;&quot;&gt;Nome&lt;/font&gt;" style="ellipse;whiteSpace=wrap;html=1;" parent="1" vertex="1">
          <mxGeometry x="650" y="480" width="120" height="80" as="geometry" />
        </mxCell>
        <mxCell id="tN9eeVgs6B-u2x_idrSd-64" value="&lt;font style=&quot;font-size: 16px;&quot;&gt;Idade&lt;/font&gt;" style="ellipse;whiteSpace=wrap;html=1;" parent="1" vertex="1">
          <mxGeometry x="810" y="585" width="120" height="80" as="geometry" />
        </mxCell>
        <mxCell id="tN9eeVgs6B-u2x_idrSd-65" value="&lt;font style=&quot;font-size: 16px;&quot;&gt;Passado&lt;/font&gt;" style="ellipse;whiteSpace=wrap;html=1;" parent="1" vertex="1">
          <mxGeometry x="990" y="610" width="120" height="80" as="geometry" />
        </mxCell>
        <mxCell id="tN9eeVgs6B-u2x_idrSd-66" value="&lt;font style=&quot;font-size: 16px;&quot;&gt;Atributos&lt;/font&gt;" style="ellipse;whiteSpace=wrap;html=1;" parent="1" vertex="1">
          <mxGeometry x="1090" y="480" width="120" height="80" as="geometry" />
        </mxCell>
        <mxCell id="tN9eeVgs6B-u2x_idrSd-67" value="&lt;font style=&quot;font-size: 16px;&quot;&gt;ID (PK)&lt;/font&gt;" style="ellipse;whiteSpace=wrap;html=1;" parent="1" vertex="1">
          <mxGeometry x="680" y="370" width="120" height="80" as="geometry" />
        </mxCell>
        <mxCell id="tN9eeVgs6B-u2x_idrSd-68" value="&lt;span style=&quot;font-size: 16px;&quot;&gt;Diálogos&lt;/span&gt;" style="ellipse;whiteSpace=wrap;html=1;" parent="1" vertex="1">
          <mxGeometry x="1090" y="220" width="120" height="80" as="geometry" />
        </mxCell>
        <mxCell id="tN9eeVgs6B-u2x_idrSd-70" value="&lt;font style=&quot;font-size: 16px;&quot;&gt;Missões&lt;/font&gt;" style="ellipse;whiteSpace=wrap;html=1;" parent="1" vertex="1">
          <mxGeometry x="1110" y="330" width="120" height="80" as="geometry" />
        </mxCell>
        <mxCell id="tN9eeVgs6B-u2x_idrSd-71" value="&lt;span style=&quot;font-size: 16px;&quot;&gt;Pontos de Experiência&lt;/span&gt;" style="ellipse;whiteSpace=wrap;html=1;dashed=1;dashPattern=8 8;" parent="1" vertex="1">
          <mxGeometry x="1280" y="340" width="120" height="80" as="geometry" />
        </mxCell>
        <mxCell id="tN9eeVgs6B-u2x_idrSd-72" value="&lt;span style=&quot;font-size: 16px;&quot;&gt;Combate&lt;/span&gt;" style="ellipse;whiteSpace=wrap;html=1;" parent="1" vertex="1">
          <mxGeometry x="800" y="120" width="120" height="80" as="geometry" />
        </mxCell>
        <mxCell id="tN9eeVgs6B-u2x_idrSd-73" value="&lt;span style=&quot;font-size: 16px;&quot;&gt;Combos e&lt;br&gt;Padrões&lt;br&gt;&lt;/span&gt;" style="ellipse;whiteSpace=wrap;html=1;" parent="1" vertex="1">
          <mxGeometry x="940" y="160" width="120" height="80" as="geometry" />
        </mxCell>
        <mxCell id="tN9eeVgs6B-u2x_idrSd-75" value="&lt;span style=&quot;font-size: 16px;&quot;&gt;Danos&lt;br&gt;&lt;/span&gt;" style="ellipse;whiteSpace=wrap;html=1;" parent="1" vertex="1">
          <mxGeometry x="670" y="220" width="120" height="80" as="geometry" />
        </mxCell>
        <mxCell id="tN9eeVgs6B-u2x_idrSd-78" value="&lt;font style=&quot;font-size: 16px;&quot;&gt;Controles&lt;/font&gt;" style="ellipse;whiteSpace=wrap;html=1;" parent="1" vertex="1">
          <mxGeometry x="380" y="60" width="120" height="80" as="geometry" />
        </mxCell>
        <mxCell id="KgcUx6kxorHHYvOVh6-6-5" value="" style="endArrow=classic;html=1;rounded=0;strokeWidth=1;" parent="1" source="tN9eeVgs6B-u2x_idrSd-2" target="tN9eeVgs6B-u2x_idrSd-18" edge="1">
          <mxGeometry width="50" height="50" relative="1" as="geometry">
            <mxPoint x="330" y="670" as="sourcePoint" />
            <mxPoint x="590" y="610" as="targetPoint" />
          </mxGeometry>
        </mxCell>
        <mxCell id="KgcUx6kxorHHYvOVh6-6-8" value="" style="endArrow=classic;html=1;rounded=0;strokeWidth=1;" parent="1" source="tN9eeVgs6B-u2x_idrSd-2" target="tN9eeVgs6B-u2x_idrSd-6" edge="1">
          <mxGeometry width="50" height="50" relative="1" as="geometry">
            <mxPoint x="364" y="214" as="sourcePoint" />
            <mxPoint x="326" y="205" as="targetPoint" />
          </mxGeometry>
        </mxCell>
        <mxCell id="KgcUx6kxorHHYvOVh6-6-9" value="" style="endArrow=classic;html=1;rounded=0;strokeWidth=1;" parent="1" source="tN9eeVgs6B-u2x_idrSd-2" target="tN9eeVgs6B-u2x_idrSd-7" edge="1">
          <mxGeometry width="50" height="50" relative="1" as="geometry">
            <mxPoint x="374" y="224" as="sourcePoint" />
            <mxPoint x="336" y="215" as="targetPoint" />
          </mxGeometry>
        </mxCell>
        <mxCell id="KgcUx6kxorHHYvOVh6-6-10" value="" style="endArrow=classic;html=1;rounded=0;strokeWidth=1;" parent="1" source="tN9eeVgs6B-u2x_idrSd-2" target="tN9eeVgs6B-u2x_idrSd-8" edge="1">
          <mxGeometry width="50" height="50" relative="1" as="geometry">
            <mxPoint x="384" y="234" as="sourcePoint" />
            <mxPoint x="346" y="225" as="targetPoint" />
          </mxGeometry>
        </mxCell>
        <mxCell id="KgcUx6kxorHHYvOVh6-6-11" value="" style="endArrow=classic;html=1;rounded=0;strokeWidth=1;" parent="1" source="tN9eeVgs6B-u2x_idrSd-2" target="tN9eeVgs6B-u2x_idrSd-9" edge="1">
          <mxGeometry width="50" height="50" relative="1" as="geometry">
            <mxPoint x="394" y="244" as="sourcePoint" />
            <mxPoint x="356" y="235" as="targetPoint" />
          </mxGeometry>
        </mxCell>
        <mxCell id="KgcUx6kxorHHYvOVh6-6-12" value="" style="endArrow=classic;html=1;rounded=0;strokeWidth=1;" parent="1" source="tN9eeVgs6B-u2x_idrSd-2" target="tN9eeVgs6B-u2x_idrSd-78" edge="1">
          <mxGeometry width="50" height="50" relative="1" as="geometry">
            <mxPoint x="404" y="254" as="sourcePoint" />
            <mxPoint x="366" y="245" as="targetPoint" />
          </mxGeometry>
        </mxCell>
        <mxCell id="KgcUx6kxorHHYvOVh6-6-13" value="" style="endArrow=classic;html=1;rounded=0;strokeWidth=1;" parent="1" source="tN9eeVgs6B-u2x_idrSd-3" target="tN9eeVgs6B-u2x_idrSd-42" edge="1">
          <mxGeometry width="50" height="50" relative="1" as="geometry">
            <mxPoint x="385" y="110" as="sourcePoint" />
            <mxPoint x="435" y="241" as="targetPoint" />
          </mxGeometry>
        </mxCell>
        <mxCell id="KgcUx6kxorHHYvOVh6-6-14" value="" style="endArrow=classic;html=1;rounded=0;strokeWidth=1;" parent="1" source="tN9eeVgs6B-u2x_idrSd-3" target="tN9eeVgs6B-u2x_idrSd-38" edge="1">
          <mxGeometry width="50" height="50" relative="1" as="geometry">
            <mxPoint x="395" y="120" as="sourcePoint" />
            <mxPoint x="445" y="251" as="targetPoint" />
          </mxGeometry>
        </mxCell>
        <mxCell id="KgcUx6kxorHHYvOVh6-6-15" value="" style="endArrow=classic;html=1;rounded=0;strokeWidth=1;" parent="1" source="tN9eeVgs6B-u2x_idrSd-3" target="tN9eeVgs6B-u2x_idrSd-39" edge="1">
          <mxGeometry width="50" height="50" relative="1" as="geometry">
            <mxPoint x="405" y="130" as="sourcePoint" />
            <mxPoint x="455" y="261" as="targetPoint" />
          </mxGeometry>
        </mxCell>
        <mxCell id="KgcUx6kxorHHYvOVh6-6-16" value="" style="endArrow=classic;html=1;rounded=0;strokeWidth=1;" parent="1" source="tN9eeVgs6B-u2x_idrSd-3" target="tN9eeVgs6B-u2x_idrSd-40" edge="1">
          <mxGeometry width="50" height="50" relative="1" as="geometry">
            <mxPoint x="415" y="140" as="sourcePoint" />
            <mxPoint x="465" y="271" as="targetPoint" />
          </mxGeometry>
        </mxCell>
        <mxCell id="KgcUx6kxorHHYvOVh6-6-17" value="" style="endArrow=classic;html=1;rounded=0;strokeWidth=1;" parent="1" source="tN9eeVgs6B-u2x_idrSd-3" target="tN9eeVgs6B-u2x_idrSd-41" edge="1">
          <mxGeometry width="50" height="50" relative="1" as="geometry">
            <mxPoint x="425" y="150" as="sourcePoint" />
            <mxPoint x="475" y="281" as="targetPoint" />
          </mxGeometry>
        </mxCell>
        <mxCell id="KgcUx6kxorHHYvOVh6-6-18" value="" style="endArrow=classic;html=1;rounded=0;strokeWidth=1;exitX=1;exitY=0.75;exitDx=0;exitDy=0;" parent="1" source="tN9eeVgs6B-u2x_idrSd-3" target="tN9eeVgs6B-u2x_idrSd-45" edge="1">
          <mxGeometry width="50" height="50" relative="1" as="geometry">
            <mxPoint x="350" y="610" as="sourcePoint" />
            <mxPoint x="485" y="291" as="targetPoint" />
          </mxGeometry>
        </mxCell>
        <mxCell id="KgcUx6kxorHHYvOVh6-6-19" value="" style="endArrow=classic;html=1;rounded=0;strokeWidth=1;exitX=1;exitY=0.5;exitDx=0;exitDy=0;" parent="1" source="tN9eeVgs6B-u2x_idrSd-3" target="tN9eeVgs6B-u2x_idrSd-44" edge="1">
          <mxGeometry width="50" height="50" relative="1" as="geometry">
            <mxPoint x="367.2054838372378" y="393.2054838372378" as="sourcePoint" />
            <mxPoint x="495" y="301" as="targetPoint" />
          </mxGeometry>
        </mxCell>
        <mxCell id="KgcUx6kxorHHYvOVh6-6-20" value="" style="endArrow=classic;html=1;rounded=0;strokeWidth=1;" parent="1" source="tN9eeVgs6B-u2x_idrSd-45" target="tN9eeVgs6B-u2x_idrSd-46" edge="1">
          <mxGeometry width="50" height="50" relative="1" as="geometry">
            <mxPoint x="455" y="180" as="sourcePoint" />
            <mxPoint x="505" y="311" as="targetPoint" />
          </mxGeometry>
        </mxCell>
        <mxCell id="KgcUx6kxorHHYvOVh6-6-24" value="" style="endArrow=classic;html=1;rounded=0;strokeWidth=1;" parent="1" source="tN9eeVgs6B-u2x_idrSd-16" target="tN9eeVgs6B-u2x_idrSd-17" edge="1">
          <mxGeometry width="50" height="50" relative="1" as="geometry">
            <mxPoint x="603" y="923" as="sourcePoint" />
            <mxPoint x="671" y="957" as="targetPoint" />
          </mxGeometry>
        </mxCell>
        <mxCell id="KgcUx6kxorHHYvOVh6-6-25" value="" style="endArrow=classic;html=1;rounded=0;strokeWidth=1;" parent="1" source="tN9eeVgs6B-u2x_idrSd-62" target="tN9eeVgs6B-u2x_idrSd-67" edge="1">
          <mxGeometry width="50" height="50" relative="1" as="geometry">
            <mxPoint x="50" y="905" as="sourcePoint" />
            <mxPoint x="134" y="884" as="targetPoint" />
          </mxGeometry>
        </mxCell>
        <mxCell id="KgcUx6kxorHHYvOVh6-6-26" value="" style="endArrow=classic;html=1;rounded=0;strokeWidth=1;" parent="1" source="tN9eeVgs6B-u2x_idrSd-62" target="tN9eeVgs6B-u2x_idrSd-63" edge="1">
          <mxGeometry width="50" height="50" relative="1" as="geometry">
            <mxPoint x="791" y="887" as="sourcePoint" />
            <mxPoint x="677" y="899" as="targetPoint" />
          </mxGeometry>
        </mxCell>
        <mxCell id="KgcUx6kxorHHYvOVh6-6-27" value="" style="endArrow=classic;html=1;rounded=0;strokeWidth=1;" parent="1" source="tN9eeVgs6B-u2x_idrSd-62" target="tN9eeVgs6B-u2x_idrSd-64" edge="1">
          <mxGeometry width="50" height="50" relative="1" as="geometry">
            <mxPoint x="801" y="897" as="sourcePoint" />
            <mxPoint x="687" y="909" as="targetPoint" />
          </mxGeometry>
        </mxCell>
        <mxCell id="KgcUx6kxorHHYvOVh6-6-28" value="" style="endArrow=classic;html=1;rounded=0;strokeWidth=1;" parent="1" source="tN9eeVgs6B-u2x_idrSd-62" target="tN9eeVgs6B-u2x_idrSd-65" edge="1">
          <mxGeometry width="50" height="50" relative="1" as="geometry">
            <mxPoint x="811" y="907" as="sourcePoint" />
            <mxPoint x="697" y="919" as="targetPoint" />
          </mxGeometry>
        </mxCell>
        <mxCell id="KgcUx6kxorHHYvOVh6-6-29" value="" style="endArrow=classic;html=1;rounded=0;strokeWidth=1;" parent="1" source="tN9eeVgs6B-u2x_idrSd-62" target="tN9eeVgs6B-u2x_idrSd-66" edge="1">
          <mxGeometry width="50" height="50" relative="1" as="geometry">
            <mxPoint x="821" y="917" as="sourcePoint" />
            <mxPoint x="707" y="929" as="targetPoint" />
          </mxGeometry>
        </mxCell>
        <mxCell id="KgcUx6kxorHHYvOVh6-6-30" value="" style="endArrow=classic;html=1;rounded=0;strokeWidth=1;" parent="1" source="tN9eeVgs6B-u2x_idrSd-62" target="tN9eeVgs6B-u2x_idrSd-70" edge="1">
          <mxGeometry width="50" height="50" relative="1" as="geometry">
            <mxPoint x="831" y="927" as="sourcePoint" />
            <mxPoint x="717" y="939" as="targetPoint" />
          </mxGeometry>
        </mxCell>
        <mxCell id="KgcUx6kxorHHYvOVh6-6-31" value="" style="endArrow=classic;html=1;rounded=0;strokeWidth=1;" parent="1" source="tN9eeVgs6B-u2x_idrSd-62" target="tN9eeVgs6B-u2x_idrSd-68" edge="1">
          <mxGeometry width="50" height="50" relative="1" as="geometry">
            <mxPoint x="841" y="937" as="sourcePoint" />
            <mxPoint x="727" y="949" as="targetPoint" />
          </mxGeometry>
        </mxCell>
        <mxCell id="KgcUx6kxorHHYvOVh6-6-32" value="" style="endArrow=classic;html=1;rounded=0;strokeWidth=1;exitX=0.25;exitY=0;exitDx=0;exitDy=0;" parent="1" source="tN9eeVgs6B-u2x_idrSd-62" target="tN9eeVgs6B-u2x_idrSd-72" edge="1">
          <mxGeometry width="50" height="50" relative="1" as="geometry">
            <mxPoint x="851" y="947" as="sourcePoint" />
            <mxPoint x="737" y="959" as="targetPoint" />
          </mxGeometry>
        </mxCell>
        <mxCell id="KgcUx6kxorHHYvOVh6-6-35" value="" style="endArrow=classic;html=1;rounded=0;strokeWidth=1;" parent="1" source="tN9eeVgs6B-u2x_idrSd-70" target="tN9eeVgs6B-u2x_idrSd-71" edge="1">
          <mxGeometry width="50" height="50" relative="1" as="geometry">
            <mxPoint x="994" y="550" as="sourcePoint" />
            <mxPoint x="1062" y="692" as="targetPoint" />
          </mxGeometry>
        </mxCell>
        <mxCell id="KgcUx6kxorHHYvOVh6-6-38" value="" style="endArrow=classic;html=1;rounded=0;strokeWidth=1;exitX=0;exitY=0;exitDx=0;exitDy=0;" parent="1" source="tN9eeVgs6B-u2x_idrSd-62" target="tN9eeVgs6B-u2x_idrSd-75" edge="1">
          <mxGeometry width="50" height="50" relative="1" as="geometry">
            <mxPoint x="920" y="523" as="sourcePoint" />
            <mxPoint x="860" y="527" as="targetPoint" />
          </mxGeometry>
        </mxCell>
        <mxCell id="KgcUx6kxorHHYvOVh6-6-39" value="" style="endArrow=classic;html=1;rounded=0;strokeWidth=1;exitX=0.5;exitY=0;exitDx=0;exitDy=0;" parent="1" source="tN9eeVgs6B-u2x_idrSd-62" target="tN9eeVgs6B-u2x_idrSd-73" edge="1">
          <mxGeometry width="50" height="50" relative="1" as="geometry">
            <mxPoint x="930" y="533" as="sourcePoint" />
            <mxPoint x="870" y="537" as="targetPoint" />
          </mxGeometry>
        </mxCell>
        <mxCell id="KgcUx6kxorHHYvOVh6-6-40" value="&lt;font style=&quot;font-size: 16px;&quot;&gt;&lt;b&gt;Jogo&lt;/b&gt;&lt;/font&gt;" style="rounded=0;whiteSpace=wrap;html=1;" parent="1" vertex="1">
          <mxGeometry x="860" y="780" width="120" height="60" as="geometry" />
        </mxCell>
        <mxCell id="KgcUx6kxorHHYvOVh6-6-41" value="&lt;font style=&quot;font-size: 16px;&quot;&gt;Jogador (FK)&lt;/font&gt;" style="ellipse;whiteSpace=wrap;html=1;" parent="1" vertex="1">
          <mxGeometry x="690" y="800" width="120" height="80" as="geometry" />
        </mxCell>
        <mxCell id="KgcUx6kxorHHYvOVh6-6-42" value="&lt;font style=&quot;font-size: 16px;&quot;&gt;NPC (FK)&lt;/font&gt;" style="ellipse;whiteSpace=wrap;html=1;" parent="1" vertex="1">
          <mxGeometry x="770" y="900" width="120" height="80" as="geometry" />
        </mxCell>
        <mxCell id="KgcUx6kxorHHYvOVh6-6-43" value="&lt;font style=&quot;font-size: 16px;&quot;&gt;Adversários (FK)&lt;/font&gt;" style="ellipse;whiteSpace=wrap;html=1;" parent="1" vertex="1">
          <mxGeometry x="950" y="900" width="120" height="80" as="geometry" />
        </mxCell>
        <mxCell id="KgcUx6kxorHHYvOVh6-6-44" value="&lt;font style=&quot;font-size: 16px;&quot;&gt;Configurações&lt;/font&gt;" style="ellipse;whiteSpace=wrap;html=1;" parent="1" vertex="1">
          <mxGeometry x="1040" y="800" width="120" height="80" as="geometry" />
        </mxCell>
        <mxCell id="KgcUx6kxorHHYvOVh6-6-46" value="" style="endArrow=classic;html=1;rounded=0;strokeWidth=1;" parent="1" source="tN9eeVgs6B-u2x_idrSd-10" target="tN9eeVgs6B-u2x_idrSd-16" edge="1">
          <mxGeometry width="50" height="50" relative="1" as="geometry">
            <mxPoint x="-399" y="556" as="sourcePoint" />
            <mxPoint x="-250" y="420" as="targetPoint" />
          </mxGeometry>
        </mxCell>
        <mxCell id="KgcUx6kxorHHYvOVh6-6-47" value="" style="endArrow=classic;html=1;rounded=0;strokeWidth=1;" parent="1" source="tN9eeVgs6B-u2x_idrSd-13" target="tN9eeVgs6B-u2x_idrSd-16" edge="1">
          <mxGeometry width="50" height="50" relative="1" as="geometry">
            <mxPoint x="-127" y="371" as="sourcePoint" />
            <mxPoint x="-303" y="519" as="targetPoint" />
          </mxGeometry>
        </mxCell>
        <mxCell id="KgcUx6kxorHHYvOVh6-6-48" value="" style="endArrow=classic;html=1;rounded=0;strokeWidth=1;" parent="1" source="tN9eeVgs6B-u2x_idrSd-11" target="tN9eeVgs6B-u2x_idrSd-16" edge="1">
          <mxGeometry width="50" height="50" relative="1" as="geometry">
            <mxPoint x="-117" y="381" as="sourcePoint" />
            <mxPoint x="-293" y="529" as="targetPoint" />
          </mxGeometry>
        </mxCell>
        <mxCell id="KgcUx6kxorHHYvOVh6-6-49" value="" style="endArrow=classic;html=1;rounded=0;strokeWidth=1;" parent="1" source="tN9eeVgs6B-u2x_idrSd-15" target="tN9eeVgs6B-u2x_idrSd-16" edge="1">
          <mxGeometry width="50" height="50" relative="1" as="geometry">
            <mxPoint x="-107" y="391" as="sourcePoint" />
            <mxPoint x="-283" y="539" as="targetPoint" />
          </mxGeometry>
        </mxCell>
        <mxCell id="KgcUx6kxorHHYvOVh6-6-50" value="" style="endArrow=classic;html=1;rounded=0;strokeWidth=1;" parent="1" source="tN9eeVgs6B-u2x_idrSd-14" target="tN9eeVgs6B-u2x_idrSd-16" edge="1">
          <mxGeometry width="50" height="50" relative="1" as="geometry">
            <mxPoint x="-97" y="401" as="sourcePoint" />
            <mxPoint x="-273" y="549" as="targetPoint" />
          </mxGeometry>
        </mxCell>
        <mxCell id="KgcUx6kxorHHYvOVh6-6-51" value="" style="endArrow=classic;html=1;rounded=0;strokeWidth=1;" parent="1" source="tN9eeVgs6B-u2x_idrSd-12" target="tN9eeVgs6B-u2x_idrSd-16" edge="1">
          <mxGeometry width="50" height="50" relative="1" as="geometry">
            <mxPoint x="-87" y="411" as="sourcePoint" />
            <mxPoint x="-263" y="559" as="targetPoint" />
          </mxGeometry>
        </mxCell>
        <mxCell id="KgcUx6kxorHHYvOVh6-6-52" value="" style="endArrow=classic;html=1;rounded=0;strokeWidth=1;" parent="1" source="tN9eeVgs6B-u2x_idrSd-9" target="tN9eeVgs6B-u2x_idrSd-10" edge="1">
          <mxGeometry width="50" height="50" relative="1" as="geometry">
            <mxPoint x="-77" y="421" as="sourcePoint" />
            <mxPoint x="-253" y="569" as="targetPoint" />
          </mxGeometry>
        </mxCell>
        <mxCell id="KgcUx6kxorHHYvOVh6-6-53" value="" style="endArrow=classic;html=1;rounded=0;strokeWidth=1;" parent="1" source="tN9eeVgs6B-u2x_idrSd-9" target="tN9eeVgs6B-u2x_idrSd-13" edge="1">
          <mxGeometry width="50" height="50" relative="1" as="geometry">
            <mxPoint x="62" y="416" as="sourcePoint" />
            <mxPoint x="-42" y="364" as="targetPoint" />
          </mxGeometry>
        </mxCell>
        <mxCell id="KgcUx6kxorHHYvOVh6-6-54" value="" style="endArrow=classic;html=1;rounded=0;strokeWidth=1;" parent="1" source="tN9eeVgs6B-u2x_idrSd-9" target="tN9eeVgs6B-u2x_idrSd-11" edge="1">
          <mxGeometry width="50" height="50" relative="1" as="geometry">
            <mxPoint x="72" y="426" as="sourcePoint" />
            <mxPoint x="-32" y="374" as="targetPoint" />
          </mxGeometry>
        </mxCell>
        <mxCell id="KgcUx6kxorHHYvOVh6-6-55" value="" style="endArrow=classic;html=1;rounded=0;strokeWidth=1;" parent="1" source="tN9eeVgs6B-u2x_idrSd-9" target="tN9eeVgs6B-u2x_idrSd-15" edge="1">
          <mxGeometry width="50" height="50" relative="1" as="geometry">
            <mxPoint x="82" y="436" as="sourcePoint" />
            <mxPoint x="-22" y="384" as="targetPoint" />
          </mxGeometry>
        </mxCell>
        <mxCell id="KgcUx6kxorHHYvOVh6-6-56" value="" style="endArrow=classic;html=1;rounded=0;strokeWidth=1;" parent="1" source="tN9eeVgs6B-u2x_idrSd-9" target="tN9eeVgs6B-u2x_idrSd-14" edge="1">
          <mxGeometry width="50" height="50" relative="1" as="geometry">
            <mxPoint x="92" y="446" as="sourcePoint" />
            <mxPoint x="-12" y="394" as="targetPoint" />
          </mxGeometry>
        </mxCell>
        <mxCell id="KgcUx6kxorHHYvOVh6-6-57" value="" style="endArrow=classic;html=1;rounded=0;strokeWidth=1;" parent="1" source="tN9eeVgs6B-u2x_idrSd-9" target="tN9eeVgs6B-u2x_idrSd-12" edge="1">
          <mxGeometry width="50" height="50" relative="1" as="geometry">
            <mxPoint x="102" y="456" as="sourcePoint" />
            <mxPoint x="-2" y="404" as="targetPoint" />
          </mxGeometry>
        </mxCell>
        <mxCell id="KgcUx6kxorHHYvOVh6-6-71" value="" style="endArrow=classic;html=1;rounded=0;strokeWidth=1;" parent="1" source="KgcUx6kxorHHYvOVh6-6-40" target="KgcUx6kxorHHYvOVh6-6-41" edge="1">
          <mxGeometry width="50" height="50" relative="1" as="geometry">
            <mxPoint x="530" y="694" as="sourcePoint" />
            <mxPoint x="633" y="800" as="targetPoint" />
          </mxGeometry>
        </mxCell>
        <mxCell id="KgcUx6kxorHHYvOVh6-6-72" value="" style="endArrow=classic;html=1;rounded=0;strokeWidth=1;" parent="1" source="KgcUx6kxorHHYvOVh6-6-40" target="KgcUx6kxorHHYvOVh6-6-42" edge="1">
          <mxGeometry width="50" height="50" relative="1" as="geometry">
            <mxPoint x="269" y="730" as="sourcePoint" />
            <mxPoint x="372" y="836" as="targetPoint" />
          </mxGeometry>
        </mxCell>
        <mxCell id="KgcUx6kxorHHYvOVh6-6-73" value="" style="endArrow=classic;html=1;rounded=0;strokeWidth=1;" parent="1" source="KgcUx6kxorHHYvOVh6-6-40" target="KgcUx6kxorHHYvOVh6-6-43" edge="1">
          <mxGeometry width="50" height="50" relative="1" as="geometry">
            <mxPoint x="279" y="740" as="sourcePoint" />
            <mxPoint x="382" y="846" as="targetPoint" />
          </mxGeometry>
        </mxCell>
        <mxCell id="KgcUx6kxorHHYvOVh6-6-75" value="" style="endArrow=classic;html=1;rounded=0;strokeWidth=1;" parent="1" source="KgcUx6kxorHHYvOVh6-6-40" target="KgcUx6kxorHHYvOVh6-6-44" edge="1">
          <mxGeometry width="50" height="50" relative="1" as="geometry">
            <mxPoint x="299" y="760" as="sourcePoint" />
            <mxPoint x="402" y="866" as="targetPoint" />
          </mxGeometry>
        </mxCell>
      </root>
    </mxGraphModel>
  </diagram>
</mxfile>
